<?xml version="1.0" encoding="UTF-8"?>
<svg id="Camada_1" data-name="Camada 1" xmlns="http://www.w3.org/2000/svg" viewBox="0 0 465.12 142.58">
  <defs>
    <style>
      .cls-1 {
        fill: #e94e1a;
      }

      .cls-2 {
        fill: #0063af;
      }
    </style>
  </defs>
  <g>
    <path class="cls-2" d="M20.64,126.53v-48.48h15.36v33.12h30c1.97,0,7.2-2.73,8.89-4.07,9.98-7.96,9.98-22.29,0-30.25-1.68-1.34-6.91-4.07-8.89-4.07H0l8.88-15.36h11.04l.72-.72V3.17h45.36c5.92,0,15.14,4.38,19.67,8.17,13.43,11.24,16.27,31.7,6.41,46.22-1.97,2.89-4.66,4.91-6.63,7.75,19.43,15.75,15.5,47.48-7.19,58.11-1.72.81-7.8,3.11-9.37,3.11H20.64ZM36,19.01v37.68l.72.72h27.84c9.29,0,18.04-10.42,18.04-19.44,0-7.66-8.04-18.96-16.12-18.96h-30.48Z"/>
    <g>
      <polygon class="cls-2" points="272.16 100.13 253.92 100.13 244.8 77.57 262.32 77.57 272.16 100.13"/>
      <g>
        <path class="cls-2" d="M336.96,85.25v-12.48h-29.28l9.44-16.72,34.73-.07c.14-42.56,49.27-66.25,82.99-39.56,27.88,22.07,24.4,66.6-6.53,84.1-21.78,12.32-50.19,7.46-65.62-12.42-2.24-2.88-3.78-6.24-6.04-9.08v23.52c-15.85-.92-33.5,1.69-49.06-1.1-15.63-2.8-30.05-14.15-36.38-28.66h-55.68l6-16.8h13.68l-10.93-25.79-1.06-.61-30.08,70.58-29.44-.27-24.73-26.63h-34.08l-.72-.72V3.65h47.76c11.86,0,25.17,13.6,28.32,24.48,5.21,18.05-3.97,35.63-20.88,42.97l18.49,21.35L216.95,2.45c2.08-.16,12.87-.76,13.69.25l23.04,53.28h12.72v-10.8c0-4.66,3.96-14.91,6.33-19.11,16.7-29.57,56.97-34.96,81.02-11.13l-12.23,12.22c-17.1-16.97-46.55-11.32-55.53,11.21-8.27,20.76,6.76,46.89,29.61,46.89h21.36ZM120,57.41h29.52c7.81,0,15.78-9.65,16.5-17.1.91-9.41-6.99-21.3-16.98-21.3h-29.04v38.4ZM436.43,56.25c0-18.59-15.07-33.66-33.66-33.66s-33.66,15.07-33.66,33.66,15.07,33.66,33.66,33.66,33.66-15.07,33.66-33.66Z"/>
        <rect class="cls-2" x="104.16" y="78.05" width="15.84" height="21.6"/>
      </g>
    </g>
  </g>
  <path class="cls-1" d="M104.16,141.89v-21.12h9.36c.75,0,4.19.83,5.04,1.2,7.27,3.12,7.51,14.17.81,18.1-.89.53-4.55,1.82-5.38,1.82h-9.84ZM108,140.45c6.55.32,12.17-1.96,12.03-9.37s-5.74-9.2-12.03-8.39v17.76Z"/>
  <path class="cls-1" d="M267.12,120.77c4.15.51,8.42,4.13,5.54,8.29-.73,1.06-2.75.82-2.42,2.26,4.32.19,5.71,5.83,2.65,8.65-.59.54-3.71,1.91-4.33,1.91h-11.28v-21.12c3.12.28,6.8-.38,9.84,0ZM261.12,122.21v8.16c11.8,1.8,11.49-9.5,0-8.16ZM261.12,131.81v8.64c3.4.02,9.6.13,9.63-4.56s-6.46-4.26-9.63-4.08Z"/>
  <path class="cls-1" d="M336.48,141.89v-21.12h8.88c.23,0,3.18.57,3.63.69,9.06,2.42,9.93,15.33,1.73,19.07-.73.33-3.85,1.36-4.4,1.36h-9.84ZM339.84,122.69v17.04c3.7,1.8,9.52-.03,11.39-3.97,3.96-8.34-2.97-14.86-11.39-13.07Z"/>
  <path class="cls-1" d="M219.12,120.77c1.79.22,5.18,1.42,5.78,3.33.57,1.81.46,4.45-.97,5.79-.87.82-3.32,1.14-3.15,2.15.22,1.24,7.44,9.23,6.73,9.84-1.19-.1-2.75.3-3.84-.23-1.48-.73-5.7-8.71-7.2-9.6-.73-.43-1.61-.23-2.4-.25v10.08h-3.36v-21.12c2.67.23,5.8-.32,8.4,0ZM214.08,130.85c9.69,1.28,9.97-10.14,0-8.64v8.64Z"/>
  <path class="cls-1" d="M414,120.77c1.79.22,5.18,1.42,5.78,3.33.57,1.81.46,4.45-.97,5.79-.87.82-3.32,1.14-3.15,2.15.2,1.14,7.35,9.31,6.73,9.84-1.19-.1-2.75.3-3.84-.23-1.52-.75-5.4-8.31-6.92-9.4-.85-.61-1.72-.48-2.67-.45v10.08h-3.36v-21.12c2.67.23,5.8-.32,8.4,0ZM408.96,130.85c9.69,1.28,9.97-10.14,0-8.64v8.64Z"/>
  <path class="cls-1" d="M391.69,131.33c0,6.22-5.04,11.26-11.26,11.26s-11.26-5.04-11.26-11.26,5.04-11.26,11.26-11.26,11.26,5.04,11.26,11.26ZM378.1,121.84c-6.85,1.55-7.17,18.9,1.99,19.3,10.69.47,10.79-22.2-1.99-19.3Z"/>
  <path class="cls-1" d="M168,125.57l-1.92.28c-.78-4.72-9.6-5.55-9.12-.57.42,4.37,12.02,5,11.55,11.56-.52,7.17-13.53,7.32-14.91.25l1.91-.28c1.62,2.83,4.49,5.31,7.87,3.57,7.78-4.02-6.95-8.9-8.56-11.48-5.18-8.29,11.66-12.54,13.18-3.34Z"/>
  <path class="cls-1" d="M289.92,120.77v14.16c0,3.6,4.37,6.39,7.8,5.9,1.79-.26,5.16-2.68,5.16-4.46v-15.6h1.92v14.64c0,.25-.94,2.72-1.17,3.15-2.42,4.47-11.1,4.9-14.64,1.62-.74-.68-2.43-3.53-2.43-4.29v-15.12h3.36Z"/>
  <path class="cls-1" d="M443.03,120.3l9.61,21.59-3.76-.08-3.03-7.04-9.09.22-2.91,6.82-1.84.08,9.4-20.6,1.63-1ZM444.96,133.25c-.27-.71-3.34-8.06-3.83-7.68l-3.37,7.68h7.2Z"/>
  <polygon class="cls-1" points="198.24 120.77 198.24 122.21 190.56 122.21 190.56 141.89 187.2 141.89 187.2 122.21 179.52 122.21 179.52 120.77 198.24 120.77"/>
  <rect class="cls-1" x="137.76" y="120.77" width="3.36" height="21.12"/>
  <rect class="cls-1" x="239.52" y="120.77" width="3.36" height="21.12"/>
  <rect class="cls-1" x="318.72" y="120.77" width="3.36" height="21.12"/>
  <path class="cls-2" d="M465.12,11.41c0,6.23-5.05,11.28-11.28,11.28s-11.28-5.05-11.28-11.28S447.62.13,453.84.13s11.28,5.05,11.28,11.28ZM464.03,11.4c0-5.63-4.56-10.19-10.19-10.19s-10.19,4.56-10.19,10.19,4.56,10.19,10.19,10.19,10.19-4.56,10.19-10.19Z"/>
  <path class="cls-2" d="M450.24,6.29c4.99-2.96,11.96,1.98,5.78,6.23l2.86,4.8c-2.89,1.01-3.26-4.81-5.54-5.05-2.61-.28-1.43,3.52-1.66,5.3-.45.21-1.44-.43-1.44-.72V6.29ZM451.68,10.86c1.2-.15,2.93.29,4-.08,4.53-1.56-5.32-8.03-4,.08Z"/>
</svg>
